<svg xmlns="http://www.w3.org/2000/svg" xmlns:xlink="http://www.w3.org/1999/xlink" viewBox="0 0 1861.1 229"><defs><style>.cls-1{fill:none;}.cls-2{clip-path:url(#clip-path);}.cls-3{fill:url(#Degradado_sin_nombre_108);}.cls-4{fill:url(#Degradado_sin_nombre_160);}.cls-5{fill:url(#Degradado_sin_nombre_99);}.cls-6{fill:url(#Degradado_sin_nombre_160-2);}.cls-7{fill:url(#Degradado_sin_nombre_16);}.cls-8{fill:url(#Degradado_sin_nombre_60);}.cls-9{fill:url(#Degradado_sin_nombre_16-2);}.cls-10{fill:url(#Degradado_sin_nombre_160-3);}.cls-11{fill:url(#Degradado_sin_nombre_160-4);}</style><clipPath id="clip-path"><rect class="cls-1" width="1861.1" height="231.07"/></clipPath><linearGradient id="Degradado_sin_nombre_108" x1="59.21" y1="420.03" x2="477.48" y2="1.76" gradientUnits="userSpaceOnUse"><stop offset="0" stop-color="#3f8c80"/><stop offset="1" stop-color="#2e7f75"/></linearGradient><linearGradient id="Degradado_sin_nombre_160" x1="-46.31" y1="268.63" x2="349.03" y2="-126.7" gradientUnits="userSpaceOnUse"><stop offset="0" stop-color="#458b7f"/><stop offset="1" stop-color="#629f8f"/></linearGradient><linearGradient id="Degradado_sin_nombre_99" x1="594.42" y1="214.36" x2="981.11" y2="-172.33" gradientUnits="userSpaceOnUse"><stop offset="0" stop-color="#428475"/><stop offset="1" stop-color="#306d61"/></linearGradient><linearGradient id="Degradado_sin_nombre_160-2" x1="960.77" y1="434.35" x2="1295.09" y2="100.03" xlink:href="#Degradado_sin_nombre_160"/><linearGradient id="Degradado_sin_nombre_16" x1="1823.92" y1="50.95" x2="1888.34" y2="-13.47" gradientUnits="userSpaceOnUse"><stop offset="0" stop-color="#2f736c"/><stop offset="1" stop-color="#337169"/></linearGradient><linearGradient id="Degradado_sin_nombre_60" x1="481.01" y1="298.11" x2="722.42" y2="56.7" gradientUnits="userSpaceOnUse"><stop offset="0" stop-color="#286660"/><stop offset="1" stop-color="#2f6d64"/></linearGradient><linearGradient id="Degradado_sin_nombre_16-2" x1="1476.41" y1="370.55" x2="1756.34" y2="90.62" xlink:href="#Degradado_sin_nombre_16"/><linearGradient id="Degradado_sin_nombre_160-3" x1="1248.07" y1="155.69" x2="1528.93" y2="-125.16" xlink:href="#Degradado_sin_nombre_160"/><linearGradient id="Degradado_sin_nombre_160-4" x1="1702.21" y1="165.96" x2="1867.13" y2="1.04" xlink:href="#Degradado_sin_nombre_160"/></defs><title>feature-bg</title><g id="Layer_2" data-name="Layer 2"><g class="cls-2"><polygon class="cls-3" points="-27.35 242.54 460.19 -15.54 500.76 242.54 -27.35 242.54"/><polyline class="cls-4" points="460.19 -15.54 0 0 0 229 460.19 -15.54"/><polygon class="cls-5" points="464.13 0 892.28 243.91 1153.43 0 464.13 0"/><polygon class="cls-6" points="863.1 264 1163.1 -14 1429.1 234.04 863.1 264"/><line class="cls-7" x1="1860.21" y1="-41.6" x2="1859.06" y2="72.08"/><polygon class="cls-8" points="443.44 -21.67 901.1 235.37 489.71 254.32 443.44 -21.67"/><polygon class="cls-9" points="1404.08 237.37 1657.35 -8.37 1815.1 237.37 1404.08 237.37"/><polygon class="cls-10" points="1153.43 0 1654.1 0 1418.08 229 1153.43 0"/><polyline class="cls-11" points="1654.1 0 1866.1 0 1861.1 231.07 1801.1 229 1650.1 -5.92"/></g></g></svg>