<svg xmlns="http://www.w3.org/2000/svg" xmlns:xlink="http://www.w3.org/1999/xlink" viewBox="0 0 352.41 249.22"><defs><style>.cls-1,.cls-23,.cls-9{fill:none;}.cls-2{fill:#1f96bf;stroke:#494949;stroke-width:0.75px;}.cls-16,.cls-19,.cls-2,.cls-20,.cls-21,.cls-22,.cls-23,.cls-24,.cls-4{stroke-miterlimit:10;}.cls-3{clip-path:url(#clip-path);}.cls-4{fill:#111;}.cls-16,.cls-17,.cls-18,.cls-19,.cls-20,.cls-21,.cls-22,.cls-23,.cls-24,.cls-4,.cls-6,.cls-9{stroke:#434a54;}.cls-18,.cls-24,.cls-5{fill:#fc6e51;}.cls-15,.cls-19,.cls-20,.cls-6{fill:#fff;}.cls-17,.cls-18,.cls-20,.cls-21,.cls-22,.cls-23,.cls-24,.cls-6,.cls-9{stroke-linecap:round;}.cls-17,.cls-18,.cls-6,.cls-9{stroke-linejoin:round;}.cls-16,.cls-17,.cls-18,.cls-19,.cls-20,.cls-21,.cls-22,.cls-23,.cls-24,.cls-6,.cls-9{stroke-width:2px;}.cls-17,.cls-22,.cls-7{fill:#4fc1e9;}.cls-8{fill:#434a54;}.cls-10{fill:#002833;}.cls-11{fill:#e8e8e8;}.cls-12{fill:#c9c9c9;}.cls-13{fill:#8ad5dd;}.cls-14{fill:#ff5f5f;}.cls-16,.cls-21{fill:#ccd1d9;}</style><clipPath id="clip-path"><rect class="cls-1" x="49.23" y="44.76" width="39.27" height="39.39"/></clipPath></defs><title>login</title><g id="Layer_2" data-name="Layer 2"><rect x="44.63" y="233.37" width="252.06" height="15.85" rx="7.93" ry="7.93"/></g><g id="Layer_9" data-name="Layer 9"><path class="cls-2" d="M127.78,26.2a7.67,7.67,0,0,0-6.57-3.73,7.59,7.59,0,0,0-1.85.23A7.65,7.65,0,0,0,105,26.15a7.66,7.66,0,0,0,1.12,15.24h23a7.66,7.66,0,1,0-1.4-15.19Zm1.4,14.47h-23a6.94,6.94,0,0,1-.73-13.85l.32-.08v-.32a6.94,6.94,0,0,1,13.13-3.14l.13.26.28-.08a6.93,6.93,0,0,1,8,3.3l.13.24.26-.06a6.94,6.94,0,1,1,1.51,13.72Zm0,0"/><g class="cls-3"><path class="cls-4" d="M68.62,74.42A3.08,3.08,0,1,0,71.7,77.5a3.08,3.08,0,0,0-3.08-3.08Zm0,4.11a1,1,0,1,1,1-1,1,1,0,0,1-1,1Zm16-26.16a29.73,29.73,0,0,0-31.9,0,1,1,0,1,0,1.1,1.73,27.7,27.7,0,0,1,29.7,0,1,1,0,0,0,.55.16,1,1,0,0,0,.55-1.89Zm-10,15.57a11.41,11.41,0,0,0-12,0,1,1,0,1,0,1.09,1.74,9.31,9.31,0,0,1,9.78,0,1,1,0,1,0,1.09-1.74Zm4.89-7.83a20.41,20.41,0,0,0-21.75,0,1,1,0,0,0,1.09,1.74,18.37,18.37,0,0,1,19.57,0,1,1,0,0,0,.55.16,1,1,0,0,0,.55-1.89Zm0,0"/></g><circle class="cls-5" cx="187.85" cy="5.95" r="1.52"/><rect class="cls-6" x="159.66" y="1" width="34.87" height="31.83" rx="4.55" ry="4.55"/><circle class="cls-7" cx="187.85" cy="16.56" r="1.52"/><circle class="cls-8" cx="187.85" cy="27.18" r="1.52"/><line class="cls-9" x1="193.77" y1="22.22" x2="160.42" y2="22.22"/><line class="cls-9" x1="193.77" y1="11.2" x2="160.42" y2="11.2"/><circle class="cls-8" cx="174.41" cy="5.95" r="0.76"/><circle class="cls-8" cx="168.43" cy="5.95" r="0.76"/><circle class="cls-8" cx="165.43" cy="5.95" r="0.76"/><circle class="cls-8" cx="174.41" cy="16.56" r="0.76"/><circle class="cls-8" cx="168.43" cy="16.56" r="0.76"/><circle class="cls-8" cx="165.43" cy="16.56" r="0.76"/><circle class="cls-8" cx="174.41" cy="27.18" r="0.76"/><circle class="cls-8" cx="171.42" cy="5.95" r="0.76"/><circle class="cls-8" cx="171.42" cy="16.56" r="0.76"/><circle class="cls-8" cx="171.42" cy="27.18" r="0.76"/><circle class="cls-8" cx="168.43" cy="27.18" r="0.76"/><circle class="cls-8" cx="165.43" cy="27.18" r="0.76"/><line class="cls-9" x1="177.1" y1="33.21" x2="177.1" y2="36.35"/><line class="cls-9" x1="179.72" y1="39.5" x2="191.63" y2="39.5"/><line class="cls-9" x1="162.56" y1="39.5" x2="174.47" y2="39.5"/><circle class="cls-6" cx="177.1" cy="39.17" r="2.65"/></g><g id="Layer_4" data-name="Layer 4"><path class="cls-10" d="M64.45,201.27v-76a2.47,2.47,0,0,1,2.46-2.46h115.3a2.47,2.47,0,0,1,2.44,2.46v76"/><path class="cls-11" d="M64.45,201.27v9.8a2.47,2.47,0,0,0,2.46,2.46h115.3a2.47,2.47,0,0,0,2.46-2.46v-9.8Zm0,0"/><rect class="cls-11" x="98.8" y="230.7" width="51.52" height="2.46"/><path class="cls-12" d="M141.71,230.7H107.38l2.44-17.17h29.45Zm0,0"/><rect class="cls-13" x="69.35" y="127.66" width="110.39" height="68.68"/><path class="cls-14" d="M158.9,166.92H90.2a3.69,3.69,0,0,1-3.68-3.68V143.61a3.69,3.69,0,0,1,3.68-3.68h68.68a3.69,3.69,0,0,1,3.68,3.68v19.63a3.68,3.68,0,0,1-3.66,3.68Zm0,0"/><path class="cls-10" d="M171.14,182.72l-4.58,4.58-10.72-10.72,4.58-4.58Zm0,0"/><path class="cls-10" d="M151,181.4l-2.95-16.92L165,167.41Zm0,0"/><path class="cls-15" d="M99.53,147.44l1.58,6.1c.34,1.33.67,2.57.88,3.81h.07c.28-1.22.68-2.5,1.07-3.79l2-6.12h1.84l1.86,6c.45,1.43.79,2.7,1.07,3.92h.07a38,38,0,0,1,.92-3.89l1.71-6h2.16l-3.87,12h-2L107,153.71c-.41-1.33-.77-2.54-1.07-3.94h-.06a36.44,36.44,0,0,1-1.09,4l-1.93,5.71h-2l-3.62-12Zm0,0"/><path class="cls-15" d="M118.07,147.44l1.58,6.1c.34,1.33.67,2.57.88,3.81h.07c.28-1.22.68-2.5,1.07-3.79l2-6.12h1.84l1.86,6c.45,1.43.79,2.7,1.07,3.92h.07a38.09,38.09,0,0,1,.92-3.89l1.71-6h2.16l-3.87,12h-2l-1.84-5.73c-.41-1.33-.77-2.54-1.07-3.94h-.06a36.44,36.44,0,0,1-1.09,4l-1.93,5.71h-2l-3.62-12Zm0,0"/><path class="cls-15" d="M136.6,147.44l1.58,6.1c.34,1.33.67,2.57.88,3.81h.07c.28-1.22.68-2.5,1.07-3.79l2-6.12H144l1.86,6c.45,1.43.79,2.7,1.07,3.92H147a38.09,38.09,0,0,1,.92-3.89l1.71-6h2.16l-3.87,12h-2l-1.84-5.73c-.41-1.33-.77-2.54-1.07-3.94H143a36.7,36.7,0,0,1-1.09,4l-1.93,5.71h-2l-3.62-12Zm0,0"/></g><g id="Layer_5" data-name="Layer 5"><path class="cls-10" d="M198.2,163.18h62.24V149.82H198.2ZM244.69,154h5.79v6.05h-5.79Z"/><path class="cls-10" d="M198.2,233.37h62.24V169.86H198.2Zm34.74-14.06H225.7v-6.68h7.24Zm-21.16-39h35.08v6.68H211.78Zm0,14h35.08V201H211.78Z"/><rect class="cls-10" x="198.2" y="123.98" width="62.24" height="19.15"/></g><g id="Layer_8" data-name="Layer 8"><path class="cls-16" d="M45.82,92.91v-5A1.79,1.79,0,0,0,44,86.14H24.31a1.79,1.79,0,0,1-1.79-1.79V82.55a1.79,1.79,0,0,0-1.79-1.79H8.17a1.79,1.79,0,0,0-1.79,1.79v1.79a1.79,1.79,0,0,1-1.79,1.79H2.79A1.79,1.79,0,0,0,1,87.93v5"/><rect class="cls-6" x="1" y="89.67" width="44.82" height="30.48" rx="1.79" ry="1.79"/><line class="cls-9" x1="23.41" y1="120.91" x2="23.41" y2="125.28"/><line class="cls-9" x1="27.07" y1="129.68" x2="42.69" y2="129.68"/><line class="cls-9" x1="4.13" y1="129.68" x2="19.75" y2="129.68"/><circle class="cls-6" cx="23.41" cy="129.22" r="3.69"/><circle class="cls-17" cx="18.36" cy="103.97" r="4.82"/><circle class="cls-18" cx="29.84" cy="111.09" r="3.44"/><circle class="cls-18" cx="29.84" cy="98" r="2.76"/><line class="cls-9" x1="22.75" y1="101.44" x2="27.06" y2="99.15"/><line class="cls-9" x1="22.15" y1="107.18" x2="26.4" y2="109.94"/><rect class="cls-19" x="225.3" y="24.76" width="22.24" height="16.68" rx="1.85" ry="1.85"/><line class="cls-9" x1="234.57" y1="45.15" x2="234.57" y2="41.45"/><line class="cls-9" x1="238.28" y1="45.15" x2="238.28" y2="41.45"/><line class="cls-9" x1="240.13" y1="45.15" x2="232.72" y2="45.15"/><rect class="cls-6" x="256.81" y="54.42" width="22.24" height="16.68" rx="1.85" ry="1.85"/><line class="cls-9" x1="266.08" y1="74.81" x2="266.08" y2="71.1"/><line class="cls-9" x1="269.79" y1="74.81" x2="269.79" y2="71.1"/><line class="cls-9" x1="271.64" y1="74.81" x2="264.23" y2="74.81"/><circle class="cls-17" cx="236.42" cy="65.54" r="3.71"/><line class="cls-9" x1="236.42" y1="61.84" x2="236.42" y2="61.84"/><line class="cls-9" x1="236.42" y1="58.59" x2="236.42" y2="51.41"/><line class="cls-9" x1="236.42" y1="48.4" x2="236.42" y2="48.4"/><line class="cls-9" x1="253.14" y1="65.54" x2="253.14" y2="65.54"/><line class="cls-9" x1="250.44" y1="65.54" x2="243.26" y2="65.54"/><circle class="cls-18" cx="267.93" cy="34.03" r="3.71"/><line class="cls-9" x1="267.93" y1="37.74" x2="267.93" y2="37.74"/><line class="cls-9" x1="267.93" y1="41.21" x2="267.93" y2="48.4"/><line class="cls-9" x1="267.93" y1="51.41" x2="267.93" y2="51.41"/><line class="cls-9" x1="251.25" y1="34.03" x2="251.25" y2="34.03"/><line class="cls-9" x1="254.5" y1="34.03" x2="261.68" y2="34.03"/><rect class="cls-20" x="323.54" y="70.37" width="27.87" height="62.17"/><rect class="cls-21" x="327.82" y="81.1" width="19.3" height="6.43"/><rect class="cls-21" x="327.82" y="87.52" width="19.3" height="6.43"/><rect class="cls-21" x="327.82" y="93.96" width="19.3" height="6.43"/><rect class="cls-21" x="327.82" y="100.39" width="19.3" height="6.43"/><rect class="cls-21" x="327.82" y="106.82" width="19.3" height="6.43"/><circle class="cls-22" cx="331.04" cy="121.83" r="3.22"/><line class="cls-23" x1="326.76" y1="74.12" x2="348.19" y2="74.12"/><line class="cls-23" x1="326.76" y1="128.8" x2="348.19" y2="128.8"/><line class="cls-23" x1="340.69" y1="125.04" x2="344.98" y2="125.04"/><line class="cls-23" x1="340.69" y1="121.83" x2="344.98" y2="121.83"/><line class="cls-23" x1="340.69" y1="118.61" x2="344.98" y2="118.61"/><rect class="cls-20" x="295.66" y="70.37" width="27.87" height="62.17"/><rect class="cls-21" x="299.95" y="81.1" width="19.3" height="6.43"/><rect class="cls-21" x="299.95" y="87.52" width="19.3" height="6.43"/><rect class="cls-21" x="299.95" y="93.96" width="19.3" height="6.43"/><rect class="cls-21" x="299.95" y="100.39" width="19.3" height="6.43"/><rect class="cls-21" x="299.95" y="106.82" width="19.3" height="6.43"/><circle class="cls-24" cx="303.17" cy="121.83" r="3.22"/><line class="cls-23" x1="298.88" y1="74.12" x2="320.32" y2="74.12"/><line class="cls-23" x1="298.88" y1="128.8" x2="320.32" y2="128.8"/><line class="cls-23" x1="312.82" y1="125.04" x2="317.11" y2="125.04"/><line class="cls-23" x1="312.82" y1="121.83" x2="317.11" y2="121.83"/><line class="cls-23" x1="312.82" y1="118.61" x2="317.11" y2="118.61"/></g></svg>